<?xml version="1.0" encoding="UTF-8" standalone="no"?>
<!-- Generator: Adobe Illustrator 25.3.1, SVG Export Plug-In . SVG Version: 6.00 Build 0)  -->

<svg
   xmlns:dc="http://purl.org/dc/elements/1.1/"
   xmlns:cc="http://creativecommons.org/ns#"
   xmlns:rdf="http://www.w3.org/1999/02/22-rdf-syntax-ns#"
   xmlns:svg="http://www.w3.org/2000/svg"
   xmlns="http://www.w3.org/2000/svg"
   xmlns:sodipodi="http://sodipodi.sourceforge.net/DTD/sodipodi-0.dtd"
   xmlns:inkscape="http://www.inkscape.org/namespaces/inkscape"
   version="1.1"
   id="Layer_1"
   x="0px"
   y="0px"
   viewBox="0 0 226.4 226.4"
   enable-background="new 0 0 374.4 374.4"
   xml:space="preserve"
   inkscape:version="0.91 r13725"
   sodipodi:docname="logo-original.svg"
   width="226.39999"
   height="226.39999"><metadata
     id="metadata4188"><rdf:RDF><cc:Work
         rdf:about=""><dc:format>image/svg+xml</dc:format><dc:type
           rdf:resource="http://purl.org/dc/dcmitype/StillImage" /><dc:title></dc:title></cc:Work></rdf:RDF></metadata><defs
     id="defs4186" /><sodipodi:namedview
     pagecolor="#000000"
     bordercolor="#666666"
     borderopacity="1"
     objecttolerance="10"
     gridtolerance="10"
     guidetolerance="10"
     inkscape:pageopacity="0"
     inkscape:pageshadow="2"
     inkscape:window-width="1920"
     inkscape:window-height="1017"
     id="namedview4184"
     showgrid="false"
     fit-margin-top="0"
     fit-margin-left="0"
     fit-margin-right="0"
     fit-margin-bottom="0"
     inkscape:zoom="2.2649573"
     inkscape:cx="113.2"
     inkscape:cy="166.18113"
     inkscape:window-x="-8"
     inkscape:window-y="-8"
     inkscape:window-maximized="1"
     inkscape:current-layer="Layer_1" /><g
     id="g4164"
     transform="translate(-74,-74)"><g
       id="g4166"><g
         id="g4168"><circle
           cx="187.2"
           cy="187.2"
           r="113.2"
           id="circle4170"
           style="fill:#ffffff" fill-opacity="0" /></g><g
         id="g4172"><g
           id="g4174"><g
             id="g4176"><path
               d="m 207.26,184.97 c 5.66,-7.2 14.24,-11.59 24.12,-11.59 5.36,0 9.83,1.38 14.09,4.14 l 0.01,-39.02 18.79,0 0,67.79 c 0,18.18 -14.74,32.91 -32.92,32.91 -12.74,0 -23.79,-7.25 -29.25,-17.83 l -8.41,-16.53 c -0.52,-1.05 -1.59,-1.8 -2.85,-1.8 -1.25,0 -2.35,0.74 -2.86,1.81 l -14.59,29.96 c -1.38,2.61 -4.1,4.38 -7.26,4.38 -3.14,0 -5.88,-1.77 -7.25,-4.38 l -14.59,-29.96 c -0.52,-1.05 -1.58,-1.8 -2.84,-1.8 -1.25,0 -2.34,0.74 -2.86,1.8 l -16.71,32.8 -21.94,0 30.87,-58.04 c 1.86,-3.7 5.7,-6.23 10.12,-6.23 4.49,0 8.3,2.63 10.14,6.42 l 13.29,27.39 c 0.32,0.65 0.98,1.09 1.76,1.09 0.77,0 1.43,-0.44 1.77,-1.09 l 13.3,-27.39 c 1.82,-3.79 5.63,-6.42 10.13,-6.42 4.42,0 8.26,2.53 10.13,6.23 L 219,212.84 c 2.37,4.49 6.95,7.56 12.38,7.56 7.78,0 14.1,-6.31 14.1,-14.1 0,-7.78 -6.32,-14.11 -14.1,-14.11 -6.93,0 -12.61,4.16 -14.87,10.3 l -9.25,-17.52 z"
               id="path4178"
               inkscape:connector-curvature="0"
               style="fill:#000000" /></g><g
             id="g4180"><path
               d="m 166.12,123.89 c 0,0 2.53,3.03 3.22,3.84 3.14,3.72 6.16,8.87 6.16,15.42 0,5 -1,7.74 -3.21,11.29 -1.87,3.11 -3.4,8.33 -3.68,14.51 l 2.83,0 c -0.01,-3.11 0.57,-6.88 2.43,-10.35 2.08,-3.3 5.03,-7.57 11.13,-7.94 5,-0.14 9.02,3.14 9.02,8.25 0,4.58 -3.3,8.41 -7.48,8.37 1.01,-1.19 0.66,-3.38 -0.53,-4.57 -1.84,-1.84 -5.47,-1.91 -8.2,0.64 -1.87,1.76 -2.72,3.47 -2.72,5.6 l 5.16,0.01 c 0.95,0 1.71,0.77 1.71,1.71 0,0.95 -0.76,1.72 -1.71,1.72 l -5.16,0 c 0,2.82 0.89,4.44 2.87,4.29 -0.12,1.36 -1.21,1.97 -2.52,1.97 -3.28,0 -4.13,-3.58 -3.95,-6.26 l -2.87,0 c -0.14,5.96 2.42,11.7 6.9,9.98 l -7.63,15.26 c -0.32,0.65 -1,1.09 -1.76,1.09 -0.76,0 -1.44,-0.44 -1.76,-1.09 l -7.65,-15.26 c 4.48,1.72 7.06,-4.02 6.92,-9.98 l -2.88,0 c 0.18,2.68 -0.69,6.26 -3.96,6.26 -1.3,0 -2.39,-0.61 -2.52,-1.97 1.99,0.15 2.89,-1.47 2.89,-4.29 l -5.17,0 c -0.93,0 -1.71,-0.77 -1.71,-1.72 0,-0.94 0.77,-1.71 1.71,-1.71 l 5.17,-0.01 c 0,-2.14 -0.88,-3.84 -2.74,-5.6 -2.73,-2.55 -6.35,-2.48 -8.2,-0.64 -1.19,1.19 -1.53,3.38 -0.53,4.57 -4.16,0.04 -7.47,-3.79 -7.47,-8.37 0,-5.11 4.03,-8.39 9.02,-8.25 6.12,0.37 9.06,4.64 11.13,7.94 1.86,3.47 2.45,7.24 2.44,10.35 l 2.82,0 c -0.28,-6.18 -1.8,-11.4 -3.69,-14.51 -2.19,-3.55 -3.2,-6.29 -3.2,-11.29 0,-6.55 3.01,-11.71 6.16,-15.42 0.69,-0.81 3.21,-3.84 3.21,-3.84 z"
               id="path4182"
               inkscape:connector-curvature="0"
               style="fill:#000000" /></g></g></g></g></g></svg>
