<svg width="170" height="170" xmlns="http://www.w3.org/2000/svg" xmlns:undefined="http://www.inkscape.org/namespaces/inkscape" xmlns:undefined="http://sodipodi.sourceforge.net/DTD/sodipodi-0.dtd" xml:space="preserve" enable-background="new 0 0 374.4 374.4" version="1.1">
 <metadata id="metadata4188">image/svg+xml</metadata>

 <g>
  <title>Layer 1</title>
  <g stroke="null" id="g4164">
   <g stroke="null" id="g4166">
    <g stroke="null" id="g4168">
     <circle stroke="null" fill="#ffffff" fill-opacity="0" id="circle4170" r="113.2" cy="81.08321" cx="88.38248"/>
    </g>
    <g stroke="null" id="g4172">
     <g stroke="null" id="g4174">
      <g stroke="null" id="g4176">
       <path stroke="null" fill="#000000"  id="path4178" d="m108.44248,78.85321c5.66,-7.2 14.24,-11.59 24.12,-11.59c5.36,0 9.83,1.38 14.09,4.14l0.01,-39.02l18.79,0l0,67.79c0,18.18 -14.74,32.91 -32.92,32.91c-12.74,0 -23.79,-7.25 -29.25,-17.83l-8.41,-16.53c-0.52,-1.05 -1.59,-1.8 -2.85,-1.8c-1.25,0 -2.35,0.74 -2.86,1.81l-14.59,29.96c-1.38,2.61 -4.1,4.38 -7.26,4.38c-3.14,0 -5.88,-1.77 -7.25,-4.38l-14.59,-29.96c-0.52,-1.05 -1.58,-1.8 -2.84,-1.8c-1.25,0 -2.34,0.74 -2.86,1.8l-16.71,32.8l-21.94,0l30.87,-58.04c1.86,-3.7 5.7,-6.23 10.12,-6.23c4.49,0 8.3,2.63 10.14,6.42l13.29,27.39c0.32,0.65 0.98,1.09 1.76,1.09c0.77,0 1.43,-0.44 1.77,-1.09l13.3,-27.39c1.82,-3.79 5.63,-6.42 10.13,-6.42c4.42,0 8.26,2.53 10.13,6.23l17.55,33.23c2.37,4.49 6.95,7.56 12.38,7.56c7.78,0 14.1,-6.31 14.1,-14.1c0,-7.78 -6.32,-14.11 -14.1,-14.11c-6.93,0 -12.61,4.16 -14.87,10.3l-9.25,-17.52z"/>
      </g>
      <g stroke="null" id="g4180">
       <path stroke="null" fill="#000000"  id="path4182" d="m67.30248,17.77321c0,0 2.53,3.03 3.22,3.84c3.14,3.72 6.16,8.87 6.16,15.42c0,5 -1,7.74 -3.21,11.29c-1.87,3.11 -3.4,8.33 -3.68,14.51l2.83,0c-0.01,-3.11 0.57,-6.88 2.43,-10.35c2.08,-3.3 5.03,-7.57 11.13,-7.94c5,-0.14 9.02,3.14 9.02,8.25c0,4.58 -3.3,8.41 -7.48,8.37c1.01,-1.19 0.66,-3.38 -0.53,-4.57c-1.84,-1.84 -5.47,-1.91 -8.2,0.64c-1.87,1.76 -2.72,3.47 -2.72,5.6l5.16,0.01c0.95,0 1.71,0.77 1.71,1.71c0,0.95 -0.76,1.72 -1.71,1.72l-5.16,0c0,2.82 0.89,4.44 2.87,4.29c-0.12,1.36 -1.21,1.97 -2.52,1.97c-3.28,0 -4.13,-3.58 -3.95,-6.26l-2.87,0c-0.14,5.96 2.42,11.7 6.9,9.98l-7.63,15.26c-0.32,0.65 -1,1.09 -1.76,1.09c-0.76,0 -1.44,-0.44 -1.76,-1.09l-7.65,-15.26c4.48,1.72 7.06,-4.02 6.92,-9.98l-2.88,0c0.18,2.68 -0.69,6.26 -3.96,6.26c-1.3,0 -2.39,-0.61 -2.52,-1.97c1.99,0.15 2.89,-1.47 2.89,-4.29l-5.17,0c-0.93,0 -1.71,-0.77 -1.71,-1.72c0,-0.94 0.77,-1.71 1.71,-1.71l5.17,-0.01c0,-2.14 -0.88,-3.84 -2.74,-5.6c-2.73,-2.55 -6.35,-2.48 -8.2,-0.64c-1.19,1.19 -1.53,3.38 -0.53,4.57c-4.16,0.04 -7.47,-3.79 -7.47,-8.37c0,-5.11 4.03,-8.39 9.02,-8.25c6.12,0.37 9.06,4.64 11.13,7.94c1.86,3.47 2.45,7.24 2.44,10.35l2.82,0c-0.28,-6.18 -1.8,-11.4 -3.69,-14.51c-2.19,-3.55 -3.2,-6.29 -3.2,-11.29c0,-6.55 3.01,-11.71 6.16,-15.42c0.69,-0.81 3.21,-3.84 3.21,-3.84z"/>
      </g>
     </g>
    </g>
   </g>
  </g>
 </g>
</svg>