<?xml version="1.0" standalone="no"?>
<!DOCTYPE svg PUBLIC "-//W3C//DTD SVG 20010904//EN"
 "http://www.w3.org/TR/2001/REC-SVG-20010904/DTD/svg10.dtd">
<svg version="1.0" xmlns="http://www.w3.org/2000/svg"
 width="803.000000pt" height="672.000000pt" viewBox="0 0 803.000000 672.000000"
 preserveAspectRatio="xMidYMid meet">

<g transform="translate(0.000000,672.000000) scale(0.100000,-0.100000)"
fill="#000000" stroke="none">
<path d="M3145 5789 c-199 -241 -263 -357 -316 -574 -18 -73 -22 -119 -22
-245 0 -205 15 -259 137 -505 52 -104 104 -221 115 -260 34 -120 65 -296 74
-422 l3 -43 -67 0 -67 0 -6 68 c-26 289 -105 472 -281 647 -202 201 -501 229
-681 63 -86 -79 -124 -166 -124 -282 0 -172 78 -306 215 -375 26 -13 67 -26
91 -29 l44 -5 -11 32 c-13 38 -6 109 15 150 21 40 99 89 154 97 156 23 337
-101 386 -266 31 -105 37 -100 -124 -100 -136 0 -142 -1 -165 -25 -34 -33 -33
-78 1 -110 26 -24 32 -25 165 -25 l139 0 0 -32 c0 -88 -46 -163 -106 -174 -39
-7 -36 -32 8 -69 23 -20 41 -25 81 -25 115 0 187 94 187 243 l0 57 71 0 72 0
-6 -93 c-9 -163 -67 -304 -150 -371 -34 -27 -46 -31 -103 -31 -35 0 -64 -1
-64 -3 0 -1 83 -168 185 -371 111 -224 193 -376 207 -385 12 -9 36 -16 53 -16
17 0 41 7 53 16 14 9 96 161 207 385 102 203 185 370 185 372 0 1 -29 2 -64 2
-57 0 -68 4 -103 31 -90 73 -141 196 -150 362 l-6 102 65 0 65 0 7 -62 c9 -92
23 -134 58 -174 42 -47 77 -64 137 -64 39 0 56 6 80 26 40 34 40 60 1 68 -60
11 -100 79 -100 169 l0 37 138 0 c125 0 140 2 160 20 12 11 24 31 28 44 7 28
-18 81 -41 90 -9 3 -77 6 -151 6 l-134 0 0 33 c0 78 65 189 152 258 66 52 102
68 177 75 139 15 246 -70 246 -196 0 -25 -5 -54 -9 -64 -9 -18 -6 -19 37 -14
83 10 185 77 236 157 51 80 74 171 68 266 -12 196 -144 335 -348 366 -63 10
-87 9 -159 -5 -155 -32 -273 -113 -391 -269 -105 -138 -160 -287 -180 -485
l-12 -122 -66 0 -67 0 8 96 c19 238 70 413 183 629 92 176 120 260 136 407 13
114 0 275 -32 388 -51 187 -188 406 -403 647 -9 10 -37 -17 -121 -118z"/>
<path d="M7090 4272 l0 -939 -127 64 c-248 123 -464 156 -764 117 -346 -45
-676 -219 -902 -477 l-58 -66 222 -418 c122 -230 223 -419 224 -421 2 -2 19
30 38 70 40 82 142 208 214 263 61 47 190 109 273 131 101 28 293 26 390 -4
237 -74 420 -271 471 -508 16 -76 16 -212 0 -288 -90 -416 -551 -651 -935
-477 -131 59 -213 129 -290 246 -19 28 -226 415 -461 860 -235 446 -440 831
-457 857 -39 61 -137 152 -198 183 -71 36 -186 65 -258 65 -109 0 -249 -48
-340 -118 -88 -67 -106 -100 -631 -1183 -179 -369 -187 -381 -246 -381 -60 0
-63 5 -330 556 -424 873 -425 875 -500 955 -206 218 -537 228 -757 22 -36 -34
-84 -92 -106 -129 -22 -37 -353 -659 -737 -1382 -384 -723 -713 -1343 -732
-1377 l-35 -63 531 0 530 0 144 283 c80 155 263 514 407 797 161 318 273 525
290 542 60 56 148 56 206 -1 18 -18 119 -214 278 -542 486 -1001 482 -993 535
-1042 105 -99 241 -137 366 -103 72 19 131 52 186 103 53 49 51 45 535 1042
146 301 261 525 277 542 57 58 156 59 209 2 14 -16 126 -224 248 -463 122
-239 252 -480 288 -535 85 -130 290 -337 417 -422 356 -237 742 -323 1160
-258 424 66 817 320 1058 683 126 189 207 391 247 611 20 112 20 145 20 1828
l0 1713 -450 0 -450 0 0 -938z"/>
</g>
</svg>
